<svg xmlns="http://www.w3.org/2000/svg" xmlns:xlink="http://www.w3.org/1999/xlink" width="100" zoomAndPan="magnify" viewBox="0 0 75 74.999997" height="100" preserveAspectRatio="xMidYMid meet" version="1.0"><defs><clipPath id="fbafc2f805"><path d="M 37.5 39.480469 L 39 39.480469 L 39 40.980469 L 37.5 40.980469 Z M 37.5 39.480469 " clip-rule="nonzero"/></clipPath></defs><g clip-path="url(#fbafc2f805)"><path fill="#000000" d="M 38.914062 40.054688 C 38.910156 40.027344 38.910156 40.003906 38.914062 39.976562 C 38.917969 39.9375 38.921875 39.894531 38.898438 39.855469 C 38.878906 39.820312 38.835938 39.800781 38.800781 39.78125 C 38.777344 39.773438 38.753906 39.761719 38.734375 39.746094 C 38.71875 39.726562 38.707031 39.703125 38.699219 39.679688 C 38.679688 39.644531 38.660156 39.601562 38.625 39.582031 C 38.585938 39.5625 38.542969 39.5625 38.503906 39.566406 C 38.476562 39.570312 38.453125 39.570312 38.425781 39.566406 C 38.40625 39.558594 38.382812 39.546875 38.363281 39.53125 C 38.332031 39.507812 38.292969 39.480469 38.25 39.480469 C 38.207031 39.480469 38.167969 39.507812 38.132812 39.53125 C 38.113281 39.546875 38.09375 39.558594 38.070312 39.566406 C 38.046875 39.570312 38.019531 39.570312 37.996094 39.566406 C 37.953125 39.5625 37.910156 39.5625 37.875 39.582031 C 37.835938 39.605469 37.816406 39.644531 37.800781 39.679688 C 37.792969 39.703125 37.777344 39.726562 37.761719 39.746094 C 37.742188 39.761719 37.722656 39.773438 37.699219 39.78125 C 37.660156 39.800781 37.621094 39.820312 37.597656 39.855469 C 37.578125 39.894531 37.582031 39.9375 37.585938 39.976562 C 37.589844 40.003906 37.589844 40.027344 37.582031 40.054688 C 37.574219 40.078125 37.5625 40.097656 37.546875 40.117188 C 37.523438 40.148438 37.5 40.1875 37.5 40.230469 C 37.5 40.277344 37.523438 40.3125 37.546875 40.347656 C 37.5625 40.367188 37.574219 40.386719 37.582031 40.410156 C 37.589844 40.433594 37.589844 40.460938 37.585938 40.484375 C 37.582031 40.527344 37.578125 40.570312 37.601562 40.605469 C 37.621094 40.644531 37.660156 40.664062 37.699219 40.679688 C 37.722656 40.691406 37.742188 40.703125 37.761719 40.71875 C 37.777344 40.738281 37.792969 40.757812 37.800781 40.78125 C 37.816406 40.820312 37.835938 40.859375 37.875 40.882812 C 37.910156 40.902344 37.953125 40.898438 37.996094 40.894531 C 38.019531 40.890625 38.046875 40.890625 38.070312 40.898438 C 38.09375 40.90625 38.113281 40.917969 38.132812 40.933594 C 38.167969 40.957031 38.207031 40.980469 38.25 40.980469 C 38.292969 40.980469 38.332031 40.957031 38.363281 40.933594 C 38.382812 40.917969 38.40625 40.90625 38.425781 40.898438 C 38.453125 40.890625 38.476562 40.890625 38.503906 40.894531 C 38.542969 40.898438 38.585938 40.902344 38.625 40.882812 C 38.660156 40.859375 38.679688 40.820312 38.699219 40.78125 C 38.707031 40.757812 38.71875 40.738281 38.734375 40.71875 C 38.753906 40.703125 38.777344 40.691406 38.800781 40.679688 C 38.839844 40.664062 38.878906 40.644531 38.898438 40.605469 C 38.921875 40.570312 38.917969 40.527344 38.914062 40.484375 C 38.910156 40.460938 38.910156 40.433594 38.914062 40.410156 C 38.921875 40.386719 38.933594 40.367188 38.949219 40.347656 C 38.972656 40.3125 39 40.277344 39 40.230469 C 39 40.1875 38.972656 40.148438 38.949219 40.117188 C 38.933594 40.097656 38.921875 40.078125 38.914062 40.054688 Z M 38.902344 40.316406 C 38.882812 40.339844 38.871094 40.367188 38.859375 40.394531 C 38.855469 40.425781 38.851562 40.457031 38.855469 40.488281 C 38.859375 40.523438 38.863281 40.558594 38.851562 40.578125 C 38.835938 40.601562 38.808594 40.613281 38.777344 40.628906 C 38.746094 40.640625 38.71875 40.65625 38.695312 40.679688 C 38.675781 40.703125 38.660156 40.730469 38.648438 40.757812 C 38.632812 40.789062 38.617188 40.820312 38.597656 40.832031 C 38.574219 40.84375 38.542969 40.84375 38.507812 40.839844 C 38.476562 40.835938 38.445312 40.835938 38.414062 40.84375 C 38.382812 40.851562 38.355469 40.867188 38.332031 40.886719 C 38.304688 40.90625 38.277344 40.925781 38.25 40.925781 C 38.222656 40.925781 38.195312 40.90625 38.167969 40.886719 C 38.140625 40.867188 38.113281 40.851562 38.085938 40.84375 C 38.070312 40.839844 38.054688 40.835938 38.039062 40.835938 C 38.023438 40.835938 38.007812 40.839844 37.992188 40.839844 C 37.957031 40.84375 37.921875 40.84375 37.902344 40.832031 C 37.878906 40.820312 37.867188 40.789062 37.851562 40.757812 C 37.839844 40.730469 37.824219 40.703125 37.800781 40.679688 C 37.777344 40.65625 37.75 40.640625 37.722656 40.628906 C 37.691406 40.613281 37.660156 40.601562 37.648438 40.578125 C 37.636719 40.558594 37.636719 40.523438 37.640625 40.488281 C 37.644531 40.457031 37.644531 40.425781 37.636719 40.394531 C 37.628906 40.367188 37.613281 40.339844 37.59375 40.316406 C 37.574219 40.285156 37.554688 40.257812 37.554688 40.230469 C 37.554688 40.207031 37.574219 40.175781 37.59375 40.148438 C 37.613281 40.125 37.628906 40.097656 37.636719 40.066406 C 37.644531 40.035156 37.644531 40.003906 37.640625 39.972656 C 37.636719 39.9375 37.636719 39.90625 37.648438 39.882812 C 37.660156 39.863281 37.691406 39.847656 37.722656 39.832031 C 37.75 39.820312 37.777344 39.804688 37.800781 39.785156 C 37.824219 39.761719 37.839844 39.734375 37.851562 39.703125 C 37.867188 39.671875 37.878906 39.644531 37.902344 39.628906 C 37.921875 39.617188 37.957031 39.621094 37.992188 39.625 C 38.023438 39.628906 38.054688 39.628906 38.085938 39.621094 C 38.113281 39.609375 38.140625 39.597656 38.167969 39.578125 C 38.195312 39.558594 38.222656 39.539062 38.25 39.539062 C 38.277344 39.539062 38.304688 39.558594 38.332031 39.578125 C 38.355469 39.597656 38.382812 39.609375 38.414062 39.621094 C 38.445312 39.628906 38.476562 39.628906 38.507812 39.625 C 38.542969 39.621094 38.574219 39.617188 38.597656 39.628906 C 38.617188 39.644531 38.632812 39.671875 38.648438 39.703125 C 38.660156 39.734375 38.675781 39.761719 38.695312 39.785156 C 38.71875 39.804688 38.746094 39.820312 38.777344 39.832031 C 38.808594 39.847656 38.835938 39.863281 38.851562 39.882812 C 38.863281 39.90625 38.859375 39.9375 38.855469 39.972656 C 38.851562 40.003906 38.855469 40.035156 38.859375 40.066406 C 38.871094 40.097656 38.882812 40.125 38.902344 40.148438 C 38.925781 40.175781 38.941406 40.207031 38.941406 40.230469 C 38.941406 40.257812 38.925781 40.285156 38.902344 40.316406 Z M 38.902344 40.316406 " fill-opacity="1" fill-rule="nonzero"/><path fill="#000000" d="M 38.25 39.710938 C 38.105469 39.710938 37.984375 39.761719 37.882812 39.863281 C 37.78125 39.964844 37.730469 40.089844 37.730469 40.230469 C 37.730469 40.375 37.78125 40.496094 37.882812 40.597656 C 37.984375 40.699219 38.105469 40.75 38.25 40.75 C 38.390625 40.75 38.515625 40.699219 38.617188 40.597656 C 38.71875 40.496094 38.769531 40.375 38.769531 40.230469 C 38.769531 40.089844 38.71875 39.964844 38.617188 39.863281 C 38.515625 39.761719 38.390625 39.710938 38.25 39.710938 Z M 38.25 40.695312 C 38.121094 40.695312 38.011719 40.648438 37.921875 40.558594 C 37.832031 40.46875 37.785156 40.359375 37.785156 40.230469 C 37.785156 40.105469 37.832031 39.996094 37.921875 39.90625 C 38.011719 39.8125 38.121094 39.769531 38.25 39.769531 C 38.378906 39.769531 38.484375 39.8125 38.578125 39.90625 C 38.667969 39.996094 38.710938 40.105469 38.710938 40.230469 C 38.710938 40.359375 38.667969 40.46875 38.578125 40.558594 C 38.484375 40.648438 38.375 40.695312 38.25 40.695312 Z M 38.25 40.695312 " fill-opacity="1" fill-rule="nonzero"/><path fill="#000000" d="M 38.484375 39.992188 C 38.460938 39.992188 38.4375 40 38.417969 40.019531 L 38.191406 40.25 L 38.078125 40.136719 C 38.035156 40.09375 37.992188 40.09375 37.949219 40.136719 C 37.90625 40.179688 37.90625 40.226562 37.949219 40.269531 L 38.125 40.445312 C 38.167969 40.488281 38.210938 40.488281 38.253906 40.445312 L 38.550781 40.148438 C 38.578125 40.121094 38.585938 40.085938 38.570312 40.050781 C 38.554688 40.011719 38.527344 39.992188 38.484375 39.992188 Z M 38.511719 40.109375 L 38.214844 40.40625 C 38.199219 40.421875 38.179688 40.421875 38.164062 40.40625 L 37.988281 40.226562 C 37.972656 40.210938 37.972656 40.195312 37.988281 40.175781 C 38.003906 40.160156 38.023438 40.160156 38.039062 40.175781 L 38.171875 40.308594 C 38.183594 40.320312 38.195312 40.320312 38.210938 40.308594 L 38.460938 40.058594 C 38.476562 40.042969 38.492188 40.042969 38.511719 40.058594 C 38.527344 40.074219 38.527344 40.09375 38.511719 40.109375 Z M 38.511719 40.109375 " fill-opacity="1" fill-rule="nonzero"/></g><path fill="#99dfec" d="M 0 37.5 C 0 58.210938 16.789062 75 37.5 75 C 58.210938 75 75 58.210938 75 37.5 C 75 16.789062 58.210938 0 37.5 0 C 16.789062 0 0 16.789062 0 37.5 Z M 56.515625 41.25 L 50.890625 46.875 L 37.5 33.484375 L 24.109375 46.875 L 18.484375 41.25 L 37.5 22.234375 Z M 56.515625 41.25 " fill-opacity="1" fill-rule="nonzero"/></svg>